<?xml version="1.0" standalone="no"?>
<!DOCTYPE svg PUBLIC "-//W3C//DTD SVG 20010904//EN"
 "http://www.w3.org/TR/2001/REC-SVG-20010904/DTD/svg10.dtd">
<svg version="1.0" xmlns="http://www.w3.org/2000/svg"
 width="256.000000pt" height="256.000000pt" viewBox="0 0 256.000000 256.000000"
 preserveAspectRatio="xMidYMid meet">

<g transform="translate(0.000000,256.000000) scale(0.100000,-0.100000)"
fill="#000000" stroke="none">
<path d="M560 2521 c11 -22 24 -42 29 -46 6 -3 -2 15 -15 40 -31 55 -42 60
-14 6z"/>
<path d="M1041 2514 c-7 -26 -11 -84 -10 -129 l2 -82 36 7 c20 4 50 15 66 24
21 11 56 16 117 16 82 0 88 -2 129 -32 23 -18 71 -73 106 -121 66 -93 86 -140
31 -73 -17 21 -50 47 -72 57 -68 31 -74 21 -8 -12 34 -17 71 -43 82 -59 12
-17 25 -29 29 -27 5 1 31 -32 60 -74 94 -140 236 -250 375 -290 l61 -18 -45 0
c-26 -1 -51 4 -58 11 -9 9 -12 8 -12 -5 0 -15 11 -16 98 -12 l98 5 12 -32 c91
-233 165 -543 178 -745 5 -69 10 -101 17 -94 17 17 24 146 16 304 -3 48 -1 91
3 95 20 20 26 141 9 185 -6 16 -11 46 -11 68 0 22 -7 56 -15 76 -11 25 -12 39
-5 43 16 10 -3 115 -34 190 -13 34 -23 67 -20 74 2 6 -3 20 -12 31 -8 11 -12
14 -9 7 6 -11 3 -11 -14 -1 -11 8 -16 16 -10 20 6 3 3 11 -7 20 -15 12 -17 12
-9 0 5 -10 4 -12 -4 -7 -6 4 -9 11 -6 16 6 10 -57 68 -110 99 -22 14 -42 26
-44 27 -2 2 12 22 32 44 37 43 55 92 30 83 -37 -14 -3 34 77 110 50 46 90 87
90 91 0 3 -9 6 -20 6 -29 0 -25 14 17 62 l37 43 -38 -35 c-21 -19 -42 -45 -47
-57 -5 -13 -17 -23 -27 -23 -11 0 -51 -33 -91 -75 -72 -76 -90 -88 -48 -31 59
79 89 140 79 157 -8 12 -7 22 2 34 10 14 15 15 21 6 5 -9 12 -4 25 16 23 36
10 53 -41 53 l-40 0 16 -30 c18 -35 17 -35 -31 -15 -38 16 -74 12 -111 -11
-21 -13 -21 -12 -16 21 l6 35 -127 0 -127 0 -20 -35 c-25 -41 -32 -45 -19 -9
6 14 10 30 10 35 0 5 -69 9 -164 9 -156 0 -165 -1 -171 -20 -3 -11 -10 -20
-15 -20 -5 0 -14 9 -20 20 -10 18 -21 20 -139 20 l-129 0 -11 -46z m430 -63
c95 -25 206 -71 291 -122 90 -53 218 -156 218 -175 0 -11 -3 -12 -12 -4 -63
54 -207 148 -291 189 -57 28 -108 51 -113 51 -5 0 44 -28 110 -61 116 -59 211
-121 200 -132 -3 -2 -19 2 -36 11 -31 15 -57 9 -65 -14 -2 -6 28 -35 66 -65
63 -49 98 -86 89 -94 -2 -2 -49 32 -105 74 -55 42 -151 103 -212 136 -129 70
-148 81 -141 89 6 6 184 -80 247 -119 l41 -26 7 22 c9 29 -19 51 -60 48 -34
-3 -120 38 -149 70 -12 13 -17 29 -14 46 5 24 1 27 -66 46 -39 12 -78 28 -86
35 -19 18 -7 18 81 -5z m464 -50 c-4 -18 -11 -28 -17 -25 -6 4 -14 0 -19 -7
-7 -11 -9 -11 -9 2 0 18 39 73 47 65 3 -2 2 -18 -2 -35z m-472 -36 c6 -16 3
-15 -13 5 -11 14 -25 34 -31 45 -8 15 -5 14 13 -5 13 -14 27 -34 31 -45z m641
-177 c9 -14 5 -23 -17 -45 -15 -15 -27 -23 -27 -16 0 6 7 13 15 17 22 8 18 25
-10 38 -14 6 -25 15 -25 20 0 16 52 4 64 -14z m-64 -12 c0 -2 -8 -10 -17 -17
-16 -13 -17 -12 -4 4 13 16 21 21 21 13z m-144 -48 l29 -33 -32 29 c-18 17
-33 31 -33 33 0 8 8 1 36 -29z m54 18 c0 -2 -8 -10 -17 -17 -16 -13 -17 -12
-4 4 13 16 21 21 21 13z m77 -162 c-8 -9 -81 21 -85 35 -4 11 4 13 37 8 27 -3
42 -1 42 6 1 7 4 -1 6 -16 3 -16 3 -31 0 -33z m-6 -34 c0 -3 2 -16 5 -30 2
-14 1 -20 -4 -13 -4 6 -23 13 -42 15 -52 5 -52 33 0 33 22 0 40 -2 41 -5z m54
-149 c8 -14 -12 -23 -36 -16 -17 6 -19 9 -8 16 18 11 36 11 44 0z"/>
<path d="M2235 2550 c-13 -5 -14 -9 -5 -9 8 0 24 4 35 9 13 5 14 9 5 9 -8 0
-24 -4 -35 -9z"/>
<path d="M2296 2544 c-9 -24 -7 -28 7 -15 8 6 16 9 19 6 3 -3 11 3 19 12 13
16 12 17 -3 4 -12 -9 -18 -10 -18 -2 0 17 -17 13 -24 -5z"/>
<path d="M697 2471 c22 -41 128 -141 151 -141 9 0 -4 13 -29 28 -42 27 -82 67
-122 122 -17 24 -17 24 0 -9z"/>
<path d="M645 2410 c27 -27 51 -50 54 -50 3 0 -17 23 -44 50 -27 28 -51 50
-54 50 -3 0 17 -22 44 -50z"/>
<path d="M870 2326 c0 -2 7 -7 16 -10 8 -3 12 -2 9 4 -6 10 -25 14 -25 6z"/>
<path d="M1324 2314 c-18 -14 -18 -15 4 -4 12 6 22 13 22 15 0 8 -5 6 -26 -11z"/>
<path d="M1030 2270 c-12 -8 -10 -10 8 -10 13 0 20 4 17 10 -7 12 -6 12 -25 0z"/>
<path d="M1368 2273 c6 -2 18 -2 25 0 6 3 1 5 -13 5 -14 0 -19 -2 -12 -5z"/>
<path d="M919 2253 c-13 -17 -13 -17 6 -3 11 8 22 16 24 17 2 2 0 3 -6 3 -6 0
-17 -8 -24 -17z"/>
<path d="M1304 2254 c-19 -15 -19 -15 1 -6 11 5 27 12 35 15 13 5 13 6 -1 6
-8 1 -24 -6 -35 -15z"/>
<path d="M919 2221 c-30 -21 -73 -66 -96 -98 -41 -58 -93 -164 -93 -187 1 -6
12 16 26 49 52 119 127 211 209 254 22 12 33 21 24 21 -9 0 -40 -18 -70 -39z"/>
<path d="M1148 2233 l24 -17 -69 -22 c-37 -12 -69 -21 -71 -19 -2 1 18 17 44
34 27 17 40 31 30 31 -19 0 -98 -76 -116 -111 l-11 -24 18 21 c10 12 32 28 48
36 39 19 126 43 144 40 23 -5 1 17 -32 33 -31 15 -31 15 -9 -2z"/>
<path d="M845 2188 l-50 -53 53 50 c28 27 52 51 52 52 0 8 -9 -1 -55 -49z"/>
<path d="M1340 2229 c-20 -8 -22 -12 -10 -19 8 -5 22 -9 30 -9 10 0 8 3 -5 8
-18 8 -16 10 15 19 19 6 26 10 15 10 -11 1 -31 -4 -45 -9z"/>
<path d="M779 2113 c-13 -16 -12 -17 4 -4 9 7 17 15 17 17 0 8 -8 3 -21 -13z"/>
<path d="M962 2079 c-28 -74 -82 -241 -81 -252 0 -6 22 51 49 128 26 77 46
142 44 144 -2 2 -7 -7 -12 -20z"/>
<path d="M712 1878 c-6 -23 -9 -44 -7 -46 2 -2 9 15 15 38 6 23 9 44 7 46 -2
3 -9 -14 -15 -38z"/>
<path d="M1022 1820 c0 -19 2 -27 5 -17 2 9 2 25 0 35 -3 9 -5 1 -5 -18z"/>
<path d="M614 1808 l-29 -33 33 29 c17 17 32 31 32 33 0 8 -8 1 -36 -29z"/>
<path d="M861 1769 c-7 -22 -11 -43 -8 -45 2 -2 9 14 16 37 7 22 11 43 8 45
-2 2 -9 -14 -16 -37z"/>
<path d="M1716 1770 c4 -14 13 -37 20 -52 17 -32 17 -38 4 -38 -5 0 -16 12
-25 28 -12 21 -14 22 -10 5 6 -22 6 -22 -29 -8 -49 21 -58 18 -15 -5 62 -33
187 -60 274 -60 67 0 82 -3 82 -15 0 -9 -5 -14 -12 -11 -6 2 -22 -5 -36 -15
-15 -13 -18 -17 -6 -13 13 5 28 -5 53 -32 29 -32 31 -33 10 -5 -25 32 -26 35
-10 52 9 11 13 19 9 19 -4 0 -1 8 8 18 15 17 12 17 -70 14 -47 -2 -110 2 -139
8 -54 11 -55 12 -84 73 -16 34 -27 51 -24 37z"/>
<path d="M665 1740 c-10 -22 -22 -37 -28 -33 -6 3 -7 1 -3 -5 4 -6 -10 -38
-31 -69 -50 -76 -59 -94 -34 -63 29 34 107 162 115 188 12 36 0 25 -19 -18z"/>
<path d="M996 1728 c-4 -20 -25 -73 -47 -118 -32 -64 -53 -91 -102 -132 -114
-95 -201 -118 -285 -76 -22 12 -29 12 -26 3 3 -7 -10 -22 -29 -34 -35 -22
-107 -95 -107 -109 0 -4 5 -14 10 -22 8 -12 10 -9 10 11 0 25 42 72 99 111 28
19 61 24 61 8 0 -5 -6 -7 -14 -4 -23 9 -53 -13 -65 -48 l-12 -33 32 38 c35 43
58 38 38 -7 -16 -33 -3 -90 35 -156 33 -57 33 -47 1 22 -28 59 -31 92 -13 149
8 28 17 39 30 39 19 0 19 -1 -1 -26 -30 -38 -26 -52 4 -16 15 18 41 34 67 40
51 13 129 61 181 110 20 20 37 31 37 25 0 -14 -82 -139 -148 -225 -56 -74 -77
-129 -61 -159 5 -11 11 -19 12 -19 1 0 2 21 2 48 0 33 7 57 24 80 13 18 25 31
27 29 2 -2 7 -28 10 -58 3 -29 12 -65 19 -80 16 -30 78 -63 106 -56 27 7 24
-5 -21 -90 -22 -43 -40 -90 -40 -107 1 -26 4 -21 21 28 11 32 27 69 35 82 9
13 22 42 28 66 7 23 18 44 24 46 5 1 27 -12 49 -30 21 -18 29 -23 19 -10 -25
29 -20 28 45 -7 47 -25 54 -33 57 -62 l2 -34 -16 32 c-9 18 -21 30 -26 27 -5
-3 -1 -12 9 -19 17 -13 17 -14 -4 -12 -13 1 -23 4 -23 7 0 3 -7 15 -15 26 -13
17 -14 16 -4 -13 6 -18 17 -33 25 -33 20 0 28 -46 17 -97 -9 -39 -8 -48 8 -64
25 -25 25 -75 0 -89 -23 -12 -81 -14 -81 -2 0 4 12 13 28 19 15 7 33 22 40 34
11 18 11 23 -5 34 -15 11 -19 10 -30 -5 -14 -20 -71 -46 -80 -37 -16 17 16 74
60 107 39 29 47 40 46 65 l-1 30 -7 -30 c-3 -17 -16 -34 -29 -41 -73 -36 -101
-102 -66 -152 24 -35 -7 -29 -53 10 -27 23 -32 25 -15 7 l22 -26 -52 -11 c-29
-6 -82 -14 -118 -18 -36 -3 -78 -12 -95 -19 -16 -7 -36 -15 -43 -17 -7 -2 -38
-78 -69 -168 -44 -128 -66 -178 -100 -223 -23 -33 -40 -63 -37 -68 3 -6 -12
-29 -34 -53 -53 -57 -75 -93 -69 -110 3 -7 0 -19 -6 -25 -8 -8 51 -11 225 -11
l237 0 19 25 20 25 6 -25 c6 -24 10 -25 78 -25 l72 0 -69 72 -70 72 77 -71 78
-71 140 -1 c79 -1 140 2 140 7 0 5 18 9 40 8 22 0 40 -4 40 -8 0 -5 58 -8 129
-8 l129 0 47 65 c25 36 48 65 51 65 3 0 -15 -29 -39 -64 l-45 -64 86 1 c83 2
86 3 92 27 l6 25 18 -28 18 -27 232 0 231 0 0 24 c0 16 -4 21 -10 15 -16 -16
-28 -10 -22 11 3 11 2 18 -2 15 -4 -2 -15 10 -24 28 -9 18 -24 43 -33 57 -9
14 10 -2 41 -35 31 -33 52 -51 47 -40 -6 11 -33 42 -61 69 -27 27 -48 53 -45
58 5 8 -71 118 -81 118 -9 0 -5 -7 30 -51 38 -48 45 -72 18 -67 -25 5 -53 60
-57 114 -3 27 -27 114 -54 194 -38 111 -54 146 -68 149 -11 2 -22 7 -25 12 -3
5 -53 16 -112 24 -60 8 -123 21 -141 29 -27 11 -35 11 -51 0 -11 -8 -37 -19
-58 -25 -68 -18 -108 26 -72 79 11 15 13 27 6 40 -22 41 -13 168 10 131 4 -7
11 -10 15 -6 4 4 2 13 -4 19 -7 7 -12 20 -12 29 0 45 101 119 121 88 5 -9 -1
-23 -20 -44 -44 -47 -81 -118 -81 -157 0 -27 8 -43 35 -69 44 -43 46 -62 5
-46 -16 6 -30 16 -30 21 0 5 -9 1 -20 -9 -11 -10 -19 -28 -19 -39 1 -17 2 -18
6 -3 5 19 19 22 29 6 3 -6 17 -9 30 -6 13 2 24 0 24 -5 0 -5 5 -6 10 -3 23 14
10 62 -25 94 -26 23 -35 40 -35 64 0 53 64 142 125 175 17 8 25 17 19 19 -6 2
3 18 21 36 33 33 54 87 56 142 0 29 1 28 20 -15 14 -30 19 -57 15 -80 -6 -39
-46 -80 -77 -80 -10 0 -19 -5 -19 -11 0 -27 85 20 96 53 l8 23 7 -25 c12 -41
10 -115 -3 -130 -11 -11 -10 -11 6 0 16 13 18 25 13 103 -4 78 -10 99 -44 168
-45 91 -48 89 77 32 80 -36 108 -57 121 -88 6 -16 8 -17 8 -3 2 37 -48 76
-147 114 -53 21 -101 41 -106 46 -6 4 -26 8 -45 7 l-36 -1 33 -8 c30 -7 61
-33 62 -52 0 -11 -73 -77 -86 -78 -6 0 -21 -19 -34 -42 -13 -22 -45 -65 -72
-95 -26 -29 -48 -58 -48 -63 0 -6 -5 -10 -11 -10 -5 0 -7 5 -4 10 11 17 -5 11
-64 -24 -66 -40 -126 -66 -153 -66 -23 0 -120 48 -206 102 -34 22 -69 37 -77
34 -8 -3 -15 -1 -15 4 0 5 -21 15 -46 22 -56 16 -83 48 -91 109 l-5 44 82 -85
81 -85 -44 68 c-25 37 -64 81 -87 98 -39 28 -42 33 -36 67 4 27 3 31 -4 17
-27 -60 2 -191 51 -227 37 -28 25 -41 -24 -27 -47 13 -77 58 -77 116 0 47 37
153 57 160 7 3 13 12 13 20 0 18 31 73 41 73 4 0 13 -16 19 -35 6 -19 15 -35
19 -35 4 0 5 16 3 35 -3 26 0 35 11 35 8 0 18 -11 21 -25 6 -22 9 -24 27 -14
25 13 49 5 49 -15 0 -20 17 -29 26 -15 4 8 3 9 -4 5 -7 -4 -12 -1 -12 8 0 17
30 29 54 20 22 -8 20 -25 -5 -60 l-21 -29 26 28 c14 15 26 37 26 49 0 14 5 18
15 14 39 -15 -1 33 -57 67 -16 10 -28 24 -28 32 0 8 -5 15 -11 15 -6 0 -9 -7
-5 -15 4 -11 -1 -15 -18 -15 -34 0 -56 10 -56 25 0 8 -5 17 -11 20 -6 4 -9 -4
-7 -22 2 -23 -1 -29 -19 -31 -13 -2 -23 -1 -23 3 0 3 15 36 34 73 39 78 69
167 63 185 -2 6 -7 -5 -11 -25z m750 -500 c-11 -73 -35 -102 -102 -121 -33
-10 -65 -20 -71 -23 -16 -7 24 41 106 128 35 37 66 66 69 63 2 -2 1 -24 -2
-47z m-248 -236 c2 -14 -2 -22 -11 -22 -19 0 -40 26 -32 40 11 18 40 6 43 -18z
m-298 -32 c33 -16 70 -30 82 -30 13 0 52 14 86 30 74 35 72 34 72 16 0 -12
-53 -52 -85 -65 -5 -2 -25 -17 -42 -34 l-33 -31 -29 28 c-28 27 -46 39 -98 67
-13 7 -23 20 -23 31 0 23 0 23 70 -12z m-37 -89 c28 -51 37 -89 15 -58 -7 9
-24 18 -38 21 -15 2 -24 9 -21 17 2 8 4 26 5 41 0 16 4 28 7 28 3 0 18 -22 32
-49z m275 32 c-1 -10 2 -30 5 -45 7 -25 5 -28 -17 -28 -13 0 -29 -7 -36 -15
-22 -27 -22 -8 1 37 33 65 49 83 47 51z m-144 -107 c6 -26 -1 -56 -14 -56 -13
0 -20 30 -14 56 3 13 10 24 14 24 4 0 11 -11 14 -24z m67 -259 c18 -55 19 -60
3 -93 -9 -19 -29 -42 -44 -51 -34 -20 -52 -54 -39 -74 6 -10 9 -8 9 11 1 21 2
22 10 8 10 -17 -5 -68 -20 -68 -9 0 -20 37 -20 65 1 22 32 65 48 65 19 0 52
52 51 79 l-1 26 -8 -28 c-12 -39 -31 -61 -40 -47 -4 7 -15 -1 -28 -21 l-20
-33 -38 38 c-34 34 -36 40 -31 84 6 48 62 184 78 190 5 2 9 11 9 20 0 22 56
-96 81 -171z m324 82 c37 -33 39 -57 3 -38 -18 10 -25 8 -40 -11 -18 -22 -18
-22 -18 -1 0 30 -28 26 -40 -5 -18 -46 -13 -54 29 -54 22 0 42 -3 44 -7 3 -5
-19 -6 -49 -5 -30 2 -54 7 -54 11 0 16 32 101 40 106 5 3 15 -2 23 -10 11 -11
22 -12 39 -6 l23 10 -25 1 c-32 1 -54 15 -46 29 12 19 34 12 71 -20z m-924 6
c20 -3 45 -15 56 -28 24 -26 155 -247 146 -247 -3 0 -50 23 -105 52 -124 65
-168 110 -168 171 0 24 -5 48 -12 55 -10 10 -6 11 17 8 17 -3 46 -8 66 -11z
m278 -73 c-41 -42 -76 -76 -78 -74 -5 3 140 152 148 152 3 0 -29 -35 -70 -78z
m493 4 c10 -19 10 -20 -6 -7 -9 8 -22 24 -28 35 -10 19 -10 20 6 7 9 -8 22
-24 28 -35z m285 -5 c-3 -12 2 -17 17 -17 16 1 20 -4 18 -22 -2 -13 2 -29 8
-37 9 -11 7 -16 -7 -24 -17 -8 -18 -6 -15 27 2 26 0 33 -6 23 -8 -11 -12 -10
-21 8 -8 14 -21 21 -42 21 -19 0 -28 4 -23 11 3 6 18 8 33 5 25 -6 26 -6 6 10
-16 14 -17 16 -2 11 9 -4 17 -2 17 4 0 6 5 7 11 3 6 -3 9 -14 6 -23z m-67 11
c0 -4 -13 -18 -29 -32 -17 -13 -27 -29 -24 -34 3 -6 2 -7 -2 -3 -16 14 -13 36
6 42 10 4 19 13 19 21 0 8 7 14 15 14 8 0 15 -3 15 -8z m-21 -53 c-8 -16 -8
-28 1 -47 10 -22 9 -24 -4 -12 -19 15 -21 51 -4 68 18 18 20 15 7 -9z m46 0
c4 -6 -2 -19 -13 -30 -24 -22 -38 -9 -22 21 12 22 25 26 35 9z m195 -39 c0
-31 -8 -66 -20 -91 l-21 -40 -39 33 c-22 18 -40 36 -40 39 0 4 13 9 29 11 17
3 28 0 27 -6 -2 -6 -1 -8 1 -3 3 4 10 4 16 0 9 -5 9 -3 1 8 -6 8 -14 29 -16
48 -4 28 -3 31 7 18 7 -9 15 -14 18 -10 14 13 -27 31 -50 22 -13 -5 -23 -5
-23 0 0 16 14 21 62 21 l48 0 0 -50z m-302 0 c11 0 13 -3 5 -11 -14 -14 -75
-7 -81 10 -4 11 3 13 28 8 18 -4 40 -7 48 -7z m36 -15 c3 -8 1 -15 -4 -15 -6
0 -10 7 -10 15 0 8 2 15 4 15 2 0 6 -7 10 -15z m110 -40 c-4 -8 -11 -12 -16
-9 -6 4 -5 10 3 15 19 12 19 11 13 -6z m-44 -10 c-7 -8 -16 -15 -21 -15 -5 0
-6 7 -3 15 4 8 13 15 21 15 13 0 13 -3 3 -15z m90 -27 c22 -16 27 -24 18 -30
-20 -12 -22 -10 -41 22 -22 36 -16 37 23 8z m-120 -18 c0 -5 -2 -10 -4 -10 -3
0 -8 5 -11 10 -3 6 -1 10 4 10 6 0 11 -4 11 -10z m0 -87 c0 -31 -4 -43 -14
-43 -20 0 -23 16 -12 66 12 51 26 39 26 -23z m-1042 28 c10 -29 10 -29 -56
-54 -37 -13 -81 -28 -98 -31 -29 -7 -31 -5 -27 18 4 19 16 29 52 41 25 9 62
24 81 35 19 11 36 19 37 20 0 0 6 -13 11 -29z m-218 -33 c-11 -29 -20 -54 -20
-56 0 -2 -10 0 -22 3 -18 5 -20 4 -8 -4 9 -7 10 -11 3 -11 -26 0 -22 22 14 70
20 27 41 50 45 50 4 0 -1 -24 -12 -52z m1448 33 c20 -10 56 -24 80 -31 23 -7
40 -15 37 -18 -2 -3 0 -13 6 -23 13 -25 -4 -25 -79 0 -98 33 -113 41 -107 51
4 6 15 4 31 -6 13 -9 24 -12 24 -6 0 5 -9 12 -20 15 -11 3 -20 12 -20 21 0 20
3 20 48 -3z m-1454 -123 c-5 -7 -2 -8 5 -3 12 7 71 -40 71 -57 0 -4 -17 -19
-37 -32 l-36 -25 -24 57 c-21 52 -22 58 -7 69 19 14 38 7 28 -9z m1618 10 c-7
-7 -12 -18 -12 -25 0 -19 27 -16 39 5 10 16 10 16 11 0 0 -9 -4 -20 -10 -23
-5 -3 -10 -12 -10 -20 0 -8 -4 -25 -10 -40 -11 -28 -20 -26 -70 15 l-25 21 45
39 c42 37 69 55 42 28z m-332 -41 c0 -1 -33 -34 -72 -72 l-73 -70 70 73 c64
67 75 77 75 69z m-1421 -70 c-13 -25 -27 -44 -31 -40 -5 3 -7 12 -4 20 7 18
50 71 54 68 2 -1 -7 -23 -19 -48z m871 33 c0 -5 -2 -10 -4 -10 -3 0 -8 5 -11
10 -3 6 -1 10 4 10 6 0 11 -4 11 -10z m64 -40 c12 0 27 5 34 12 8 8 12 8 12 1
0 -13 -23 -23 -55 -23 -25 0 -39 12 -27 24 3 4 8 2 10 -3 2 -6 14 -11 26 -11z
m-324 -21 c12 -16 20 -32 17 -35 -2 -3 -14 11 -25 31 -26 43 -21 46 8 4z"/>
<path d="M1252 624 l-22 -55 35 -33 c19 -18 35 -42 36 -52 0 -14 2 -15 6 -4 3
8 14 25 25 36 19 21 19 22 -13 93 -17 39 -34 71 -38 71 -3 0 -16 -25 -29 -56z
m43 -47 c0 -26 -20 -25 -23 2 -3 16 1 22 10 19 7 -3 13 -12 13 -21z"/>
<path d="M1225 520 c10 -11 21 -17 25 -15 5 3 6 -5 2 -17 -3 -13 -1 -19 5 -15
16 10 25 -23 11 -40 -10 -13 -13 -12 -20 7 -4 12 -13 18 -18 15 -7 -4 -10 3
-8 21 2 15 -3 29 -9 31 -9 3 -13 -5 -13 -24 0 -34 14 -58 29 -49 7 5 9 1 5 -8
-4 -10 1 -18 11 -23 23 -8 48 25 40 52 -3 11 -8 29 -10 40 -5 23 -32 45 -53
45 -12 0 -12 -4 3 -20z"/>
<path d="M1630 636 c0 -2 7 -7 16 -10 8 -3 12 -2 9 4 -6 10 -25 14 -25 6z"/>
<path d="M726 594 c-39 -39 -7 -82 121 -159 41 -25 77 -45 78 -43 6 6 -106
174 -131 196 -30 26 -47 28 -68 6z m70 -26 c22 -25 94 -135 94 -143 0 -2 -30
15 -67 39 -75 48 -109 86 -100 110 9 23 50 19 73 -6z"/>
<path d="M1940 419 c0 -5 5 -7 10 -4 6 3 10 8 10 11 0 2 -4 4 -10 4 -5 0 -10
-5 -10 -11z"/>
<path d="M1893 385 c16 -14 33 -22 40 -18 7 4 4 9 -9 13 -19 7 -19 8 1 12 16
4 15 5 -3 3 -12 -1 -25 2 -28 6 -3 5 -11 9 -17 9 -7 0 1 -12 16 -25z"/>
<path d="M641 290 c-10 -5 -9 -8 2 -13 7 -3 19 -2 26 3 10 5 9 8 -2 13 -7 3
-19 2 -26 -3z"/>
<path d="M574 244 c-18 -14 -18 -15 4 -4 12 6 22 13 22 15 0 8 -5 6 -26 -11z"/>
<path d="M1977 259 c7 -7 15 -10 18 -7 3 3 -2 9 -12 12 -14 6 -15 5 -6 -5z"/>
<path d="M2041 118 c8 -7 19 -19 25 -26 9 -11 13 -11 19 -1 6 8 4 10 -5 4 -10
-6 -12 -4 -7 9 4 9 3 14 -2 11 -5 -3 -12 -1 -16 5 -3 5 -11 10 -18 10 -6 0 -5
-5 4 -12z"/>
<path d="M1032 1735 c0 -16 2 -22 5 -12 2 9 2 23 0 30 -3 6 -5 -1 -5 -18z"/>
<path d="M896 1725 c-9 -26 -7 -32 5 -12 6 10 9 21 6 23 -2 3 -7 -2 -11 -11z"/>
<path d="M1173 1708 c2 -7 12 -40 22 -73 16 -56 60 -155 70 -155 2 0 -9 28
-25 63 -32 70 -47 117 -33 102 5 -5 29 -34 52 -63 24 -29 70 -73 102 -99 50
-39 57 -48 47 -61 -11 -13 -10 -14 10 -8 18 6 22 4 22 -13 0 -11 10 -30 23
-43 12 -13 17 -17 10 -9 -9 11 -7 18 13 34 l25 19 25 -23 25 -23 -23 -13 c-13
-7 -18 -12 -12 -13 6 0 24 10 40 22 17 14 39 22 58 20 17 -1 -2 7 -42 18 -98
26 -146 49 -218 103 -61 46 -137 134 -168 195 -16 31 -33 45 -23 20z"/>
<path d="M814 1648 c-16 -34 -51 -84 -79 -111 -27 -27 -49 -54 -48 -58 2 -5
-2 -10 -7 -10 -17 -2 -24 -5 -51 -18 -22 -11 -31 -10 -58 3 -40 21 -40 14 0
-12 26 -16 37 -18 65 -9 45 14 151 102 192 160 46 65 33 59 -17 -8 -53 -70
-71 -72 -24 -2 36 53 67 116 60 123 -2 2 -17 -24 -33 -58z m-79 -138 c-10 -11
-22 -20 -28 -20 -5 0 1 9 14 20 31 25 37 25 14 0z"/>
<path d="M1046 1660 c10 -61 85 -180 162 -257 40 -40 76 -73 81 -73 5 0 -18
26 -51 58 -78 74 -145 168 -175 246 -16 42 -21 50 -17 26z"/>
<path d="M1928 1555 c-92 -48 -242 -62 -403 -38 l-40 5 20 -22 c11 -12 33 -29
50 -37 l30 -14 -25 20 c-14 11 -28 21 -32 21 -5 0 -8 4 -8 9 0 5 16 5 38 0 53
-12 166 -11 232 3 33 6 65 8 76 3 10 -5 23 -9 29 -9 5 -1 22 -20 37 -43 18
-26 50 -54 86 -74 72 -40 109 -74 134 -122 l19 -39 -35 -33 c-32 -30 -109 -65
-143 -65 -11 0 -10 6 2 31 9 17 15 33 12 35 -6 6 -77 -131 -76 -147 0 -8 7 3
16 24 11 26 23 39 42 43 72 14 104 28 136 55 32 28 51 29 23 1 -8 -8 -8 -12
-1 -12 18 0 38 30 25 39 -6 4 -8 12 -3 20 24 39 -32 118 -149 206 -52 40 -103
81 -113 92 -17 20 -17 21 5 27 20 5 81 46 68 45 -3 0 -26 -11 -52 -24z m52
-130 c13 -14 21 -25 18 -25 -2 0 -15 11 -28 25 -13 14 -21 25 -18 25 2 0 15
-11 28 -25z"/>
<path d="M510 1495 c-7 -8 -21 -15 -32 -15 -11 0 -16 -5 -13 -11 4 -5 -1 -19
-11 -30 -33 -37 -8 -18 36 26 24 25 42 45 38 45 -3 0 -11 -7 -18 -15z"/>
<path d="M1891 1484 c2 -5 21 -43 42 -84 20 -41 46 -104 56 -140 12 -40 20
-55 20 -39 2 49 -81 246 -110 265 -6 4 -10 3 -8 -2z"/>
<path d="M1286 1442 c10 -18 28 -41 38 -50 12 -10 8 0 -9 23 -40 56 -51 66
-29 27z"/>
<path d="M980 1383 c0 -5 10 -18 23 -29 l22 -19 -20 25 c-11 14 -21 27 -22 29
-2 2 -3 0 -3 -6z"/>
<path d="M1770 1380 c-9 -6 -10 -10 -3 -10 6 0 15 5 18 10 8 12 4 12 -15 0z"/>
<path d="M641 1314 c-30 -118 -23 -161 42 -231 l40 -44 -44 -46 -44 -47 42 33
c24 18 45 37 49 42 3 5 15 7 27 3 13 -3 5 7 -21 26 -82 62 -105 132 -82 250
10 56 5 65 -9 14z"/>
<path d="M1385 1330 c10 -11 20 -20 23 -20 3 0 -3 9 -13 20 -10 11 -20 20 -23
20 -3 0 3 -9 13 -20z"/>
<path d="M2182 1295 c0 -16 3 -39 8 -50 8 -18 9 -18 8 5 0 14 -4 36 -8 50 -8
24 -8 24 -8 -5z"/>
<path d="M870 1303 c0 -5 7 -18 15 -29 13 -18 14 -18 8 4 -5 22 -23 41 -23 25z"/>
<path d="M390 1216 c0 -2 8 -10 18 -17 15 -13 16 -12 3 4 -13 16 -21 21 -21
13z"/>
<path d="M1902 1154 c-7 -34 -25 -87 -41 -118 -15 -31 -24 -56 -20 -56 22 0
82 163 77 207 -2 21 -6 12 -16 -33z"/>
<path d="M475 1157 c11 -8 38 -20 60 -27 22 -7 52 -19 68 -27 15 -7 27 -10 27
-6 0 5 -12 14 -27 20 -53 23 -98 41 -123 48 -24 7 -24 6 -5 -8z"/>
<path d="M631 1064 c0 -11 3 -14 6 -6 3 7 2 16 -1 19 -3 4 -6 -2 -5 -13z"/>
<path d="M1670 1031 c-16 -30 -11 -82 11 -121 11 -19 17 -25 14 -13 -6 20 -4
21 30 10 35 -10 37 -9 73 28 l37 40 -37 -34 c-40 -37 -66 -37 -109 -2 -21 17
-22 22 -12 65 11 50 9 57 -7 27z"/>
<path d="M631 1021 c-1 -8 -9 -24 -18 -35 -16 -20 -16 -20 6 0 13 12 21 28 18
35 -4 11 -6 11 -6 0z"/>
<path d="M1918 1001 c-11 -36 28 -71 46 -42 4 5 -3 7 -13 4 -16 -4 -20 1 -23
29 -3 31 -4 31 -10 9z"/>
<path d="M550 990 c0 -5 5 -10 11 -10 5 0 7 5 4 10 -3 6 -8 10 -11 10 -2 0 -4
-4 -4 -10z"/>
<path d="M560 961 c0 -6 4 -13 10 -16 6 -3 7 1 4 9 -7 18 -14 21 -14 7z"/>
<path d="M1872 945 c15 -16 29 -27 31 -24 3 2 -10 15 -27 28 l-31 24 27 -28z"/>
<path d="M1702 845 c0 -16 2 -22 5 -12 2 9 2 23 0 30 -3 6 -5 -1 -5 -18z"/>
<path d="M850 801 c0 -6 4 -13 10 -16 6 -3 7 1 4 9 -7 18 -14 21 -14 7z"/>
<path d="M1681 777 c-13 -21 -12 -21 5 -5 10 10 16 20 13 22 -3 3 -11 -5 -18
-17z"/>
<path d="M1081 754 c0 -11 3 -14 6 -6 3 7 2 16 -1 19 -3 4 -6 -2 -5 -13z"/>
<path d="M2117 219 c7 -7 15 -10 18 -7 3 3 -2 9 -12 12 -14 6 -15 5 -6 -5z"/>
</g>
</svg>
